hip_adduction									
version=1									
nRows=31									
nColumns=10									
inDegrees=yes									
									
"Units are S.I. units (second, meters, Newtons, ...)"									
Angles are in degrees.									
									
endheader									
time	xRotation	yRotation	zRotation	xTranslation	yTranslation	zTranslation	hip_flexion_r	hip_adduction_r	hip_rotation_r
0	0	0	0	0	0	0	0	0	-30
0.01	0	0	0	0	0	0	0	0	-28
0.02	0	0	0	0	0	0	0	0	-26
0.03	0	0	0	0	0	0	0	0	-24
0.04	0	0	0	0	0	0	0	0	-22
0.05	0	0	0	0	0	0	0	0	-20
0.06	0	0	0	0	0	0	0	0	-18
0.07	0	0	0	0	0	0	0	0	-16
0.08	0	0	0	0	0	0	0	0	-14
0.09	0	0	0	0	0	0	0	0	-12
0.1	0	0	0	0	0	0	0	0	-10
0.11	0	0	0	0	0	0	0	0	-8
0.12	0	0	0	0	0	0	0	0	-6
0.13	0	0	0	0	0	0	0	0	-4
0.14	0	0	0	0	0	0	0	0	-2
0.15	0	0	0	0	0	0	0	0	0
0.16	0	0	0	0	0	0	0	0	2
0.17	0	0	0	0	0	0	0	0	4
0.18	0	0	0	0	0	0	0	0	6
0.19	0	0	0	0	0	0	0	0	8
0.2	0	0	0	0	0	0	0	0	10
0.21	0	0	0	0	0	0	0	0	12
0.22	0	0	0	0	0	0	0	0	14
0.23	0	0	0	0	0	0	0	0	16
0.24	0	0	0	0	0	0	0	0	18
0.25	0	0	0	0	0	0	0	0	20
0.26	0	0	0	0	0	0	0	0	22
0.27	0	0	0	0	0	0	0	0	24
0.28	0	0	0	0	0	0	0	0	26
0.29	0	0	0	0	0	0	0	0	28
0.3	0	0	0	0	0	0	0	0	30
